<svg xmlns="http://www.w3.org/2000/svg" viewBox="0 0 1200 860" font-family="Segoe UI, Arial, sans-serif">

  <!-- Background -->
  <rect width="1200" height="860" fill="#f8f9fa" rx="14"/>
  <text x="600" y="36" text-anchor="middle" font-size="20" font-weight="bold" fill="#1a1a2e">Modelo de Negocio — Andamiaje Python v2</text>
  <text x="600" y="56" text-anchor="middle" font-size="12" fill="#666">Flujo de valor entre actores del sistema educativo adaptativo</text>

  <!-- ══════ ACTORS ══════ -->

  <!-- ADMIN -->
  <rect x="30" y="90" width="150" height="680" rx="10" fill="#e0f2fe" stroke="#0284c7" stroke-width="2"/>
  <text x="105" y="115" text-anchor="middle" font-size="13" font-weight="bold" fill="#0369a1">👤 Admin</text>
  <line x1="30" y1="125" x2="180" y2="125" stroke="#0284c7" stroke-width="1"/>

  <rect x="42" y="135" width="126" height="48" rx="6" fill="#bae6fd" stroke="#0284c7"/>
  <text x="105" y="154" text-anchor="middle" font-size="10" font-weight="bold" fill="#0c4a6e">Gestionar</text>
  <text x="105" y="168" text-anchor="middle" font-size="10" fill="#0c4a6e">usuarios y roles</text>

  <rect x="42" y="193" width="126" height="48" rx="6" fill="#bae6fd" stroke="#0284c7"/>
  <text x="105" y="212" text-anchor="middle" font-size="10" font-weight="bold" fill="#0c4a6e">Crear cursos</text>
  <text x="105" y="226" text-anchor="middle" font-size="10" fill="#0c4a6e">y asignar docentes</text>

  <rect x="42" y="251" width="126" height="48" rx="6" fill="#bae6fd" stroke="#0284c7"/>
  <text x="105" y="270" text-anchor="middle" font-size="10" font-weight="bold" fill="#0c4a6e">Analíticas</text>
  <text x="105" y="284" text-anchor="middle" font-size="10" fill="#0c4a6e">globales</text>

  <rect x="42" y="309" width="126" height="48" rx="6" fill="#bae6fd" stroke="#0284c7"/>
  <text x="105" y="328" text-anchor="middle" font-size="10" font-weight="bold" fill="#0c4a6e">Predicciones</text>
  <text x="105" y="342" text-anchor="middle" font-size="10" fill="#0c4a6e">de riesgo global</text>

  <rect x="42" y="367" width="126" height="48" rx="6" fill="#bae6fd" stroke="#0284c7"/>
  <text x="105" y="386" text-anchor="middle" font-size="10" font-weight="bold" fill="#0c4a6e">Alertas</text>
  <text x="105" y="400" text-anchor="middle" font-size="10" fill="#0c4a6e">tempranas globales</text>

  <rect x="42" y="425" width="126" height="48" rx="6" fill="#bae6fd" stroke="#0284c7"/>
  <text x="105" y="444" text-anchor="middle" font-size="10" font-weight="bold" fill="#0c4a6e">Exportar reporte</text>
  <text x="105" y="458" text-anchor="middle" font-size="10" fill="#0c4a6e">institucional</text>

  <!-- DOCENTE -->
  <rect x="210" y="90" width="180" height="680" rx="10" fill="#dcfce7" stroke="#16a34a" stroke-width="2"/>
  <text x="300" y="115" text-anchor="middle" font-size="13" font-weight="bold" fill="#15803d">👩‍🏫 Docente</text>
  <line x1="210" y1="125" x2="390" y2="125" stroke="#16a34a" stroke-width="1"/>

  <rect x="222" y="135" width="156" height="48" rx="6" fill="#bbf7d0" stroke="#16a34a"/>
  <text x="300" y="154" text-anchor="middle" font-size="10" font-weight="bold" fill="#14532d">Crear preguntas</text>
  <text x="300" y="168" text-anchor="middle" font-size="10" fill="#14532d">por nivel y tema</text>

  <rect x="222" y="193" width="156" height="48" rx="6" fill="#bbf7d0" stroke="#16a34a"/>
  <text x="300" y="212" text-anchor="middle" font-size="10" font-weight="bold" fill="#14532d">Importar CSV</text>
  <text x="300" y="226" text-anchor="middle" font-size="10" fill="#14532d">masivo de preguntas</text>

  <rect x="222" y="251" width="156" height="48" rx="6" fill="#bbf7d0" stroke="#16a34a"/>
  <text x="300" y="270" text-anchor="middle" font-size="10" font-weight="bold" fill="#14532d">Ver andamiajes</text>
  <text x="300" y="284" text-anchor="middle" font-size="10" fill="#14532d">generados por Haiku</text>

  <rect x="222" y="309" width="156" height="48" rx="6" fill="#bbf7d0" stroke="#16a34a"/>
  <text x="300" y="328" text-anchor="middle" font-size="10" font-weight="bold" fill="#14532d">Analíticas</text>
  <text x="300" y="342" text-anchor="middle" font-size="10" fill="#14532d">de su curso</text>

  <rect x="222" y="367" width="156" height="48" rx="6" fill="#bbf7d0" stroke="#16a34a"/>
  <text x="300" y="386" text-anchor="middle" font-size="10" font-weight="bold" fill="#14532d">Predicciones riesgo</text>
  <text x="300" y="400" text-anchor="middle" font-size="10" fill="#14532d">de sus estudiantes</text>

  <rect x="222" y="425" width="156" height="48" rx="6" fill="#bbf7d0" stroke="#16a34a"/>
  <text x="300" y="444" text-anchor="middle" font-size="10" font-weight="bold" fill="#14532d">Recibe alertas</text>
  <text x="300" y="458" text-anchor="middle" font-size="10" fill="#14532d">estudiantes en riesgo</text>

  <rect x="222" y="483" width="156" height="48" rx="6" fill="#bbf7d0" stroke="#16a34a"/>
  <text x="300" y="502" text-anchor="middle" font-size="10" font-weight="bold" fill="#14532d">Asignar estudiantes</text>
  <text x="300" y="516" text-anchor="middle" font-size="10" fill="#14532d">a sus cursos</text>

  <!-- SISTEMA (CENTRO) -->
  <rect x="430" y="90" width="340" height="680" rx="10" fill="#fef3c7" stroke="#d97706" stroke-width="2"/>
  <text x="600" y="115" text-anchor="middle" font-size="14" font-weight="bold" fill="#92400e">⚙️ Sistema Andamiaje Python</text>
  <line x1="430" y1="125" x2="770" y2="125" stroke="#d97706" stroke-width="1"/>

  <!-- Sistema boxes -->
  <rect x="445" y="135" width="150" height="54" rx="6" fill="#fde68a" stroke="#d97706"/>
  <text x="520" y="155" text-anchor="middle" font-size="10" font-weight="bold" fill="#78350f">Auth JWT</text>
  <text x="520" y="169" text-anchor="middle" font-size="10" fill="#78350f">3 roles · bcrypt</text>
  <text x="520" y="181" text-anchor="middle" font-size="10" fill="#78350f">token 24h</text>

  <rect x="610" y="135" width="148" height="54" rx="6" fill="#fde68a" stroke="#d97706"/>
  <text x="684" y="155" text-anchor="middle" font-size="10" font-weight="bold" fill="#78350f">Gestión Preguntas</text>
  <text x="684" y="169" text-anchor="middle" font-size="10" fill="#78350f">CRUD + CSV import</text>
  <text x="684" y="181" text-anchor="middle" font-size="10" fill="#78350f">seed 30 ejercicios</text>

  <rect x="445" y="202" width="313" height="60" rx="6" fill="#fde68a" stroke="#d97706"/>
  <text x="601" y="222" text-anchor="middle" font-size="10" font-weight="bold" fill="#78350f">🤖 Generación de Andamiaje (Claude Haiku)</text>
  <text x="601" y="237" text-anchor="middle" font-size="10" fill="#78350f">3 niveles por pregunta: mínimo · parcial · completo</text>
  <text x="601" y="251" text-anchor="middle" font-size="10" fill="#78350f">en español · pedagógico · personalizado por nivel</text>

  <rect x="445" y="275" width="313" height="72" rx="6" fill="#fde68a" stroke="#d97706"/>
  <text x="601" y="295" text-anchor="middle" font-size="10" font-weight="bold" fill="#78350f">💬 Chat Adaptativo</text>
  <text x="601" y="309" text-anchor="middle" font-size="10" fill="#78350f">Selección inteligente de ejercicio por historial</text>
  <text x="601" y="323" text-anchor="middle" font-size="10" fill="#78350f">Progresión: mínimo → parcial → completo</text>
  <text x="601" y="337" text-anchor="middle" font-size="10" fill="#78350f">Evaluación: pytest + BLEU + Haiku score</text>

  <rect x="445" y="360" width="313" height="60" rx="6" fill="#fde68a" stroke="#d97706"/>
  <text x="601" y="380" text-anchor="middle" font-size="10" font-weight="bold" fill="#78350f">📊 Scoring por Corte</text>
  <text x="601" y="395" text-anchor="middle" font-size="10" fill="#78350f">pass_tests×0.40 + haiku×0.30 + bleu×0.20 + eficiencia×0.10</text>
  <text x="601" y="409" text-anchor="middle" font-size="10" fill="#78350f">Guarda: nombre · semestre · curso · programa · corte</text>

  <rect x="445" y="433" width="313" height="54" rx="6" fill="#fde68a" stroke="#d97706"/>
  <text x="601" y="453" text-anchor="middle" font-size="10" font-weight="bold" fill="#78350f">🗺️ Ruta de Aprendizaje (Haiku)</text>
  <text x="601" y="467" text-anchor="middle" font-size="10" fill="#78350f">temas_fuertes · temas_a_reforzar</text>
  <text x="601" y="481" text-anchor="middle" font-size="10" fill="#78350f">ejercicios_recomendados · recursos_externos</text>

  <rect x="445" y="500" width="148" height="54" rx="6" fill="#fde68a" stroke="#d97706"/>
  <text x="519" y="520" text-anchor="middle" font-size="10" font-weight="bold" fill="#78350f">📈 Analíticas</text>
  <text x="519" y="534" text-anchor="middle" font-size="10" fill="#78350f">heatmap · cohortes</text>
  <text x="519" y="548" text-anchor="middle" font-size="10" fill="#78350f">abandono · distribución</text>

  <rect x="608" y="500" width="150" height="54" rx="6" fill="#fde68a" stroke="#d97706"/>
  <text x="683" y="520" text-anchor="middle" font-size="10" font-weight="bold" fill="#78350f">🔮 Predicción Riesgo</text>
  <text x="683" y="534" text-anchor="middle" font-size="10" fill="#78350f">RandomForest · score 0–1</text>
  <text x="683" y="548" text-anchor="middle" font-size="10" fill="#78350f">alertas automáticas</text>

  <rect x="445" y="567" width="313" height="48" rx="6" fill="#fde68a" stroke="#d97706"/>
  <text x="601" y="587" text-anchor="middle" font-size="10" font-weight="bold" fill="#78350f">💡 Insights Narrativos (Haiku)</text>
  <text x="601" y="601" text-anchor="middle" font-size="10" fill="#78350f">"El 68% falla en decoradores en corte 1. Recomendación: ..."</text>

  <rect x="445" y="628" width="313" height="48" rx="6" fill="#fed7aa" stroke="#ea580c"/>
  <text x="601" y="644" text-anchor="middle" font-size="10" font-weight="bold" fill="#7c2d12">📧 Email SendGrid — Automático</text>
  <text x="601" y="658" text-anchor="middle" font-size="10" fill="#7c2d12">Se envía al calcular evaluación · reenvío manual disponible</text>

  <!-- ESTUDIANTE -->
  <rect x="810" y="90" width="180" height="680" rx="10" fill="#ede9fe" stroke="#7c3aed" stroke-width="2"/>
  <text x="900" y="115" text-anchor="middle" font-size="13" font-weight="bold" fill="#5b21b6">🎓 Estudiante</text>
  <line x1="810" y1="125" x2="990" y2="125" stroke="#7c3aed" stroke-width="1"/>

  <rect x="822" y="135" width="156" height="48" rx="6" fill="#ddd6fe" stroke="#7c3aed"/>
  <text x="900" y="154" text-anchor="middle" font-size="10" font-weight="bold" fill="#3b0764">Ingresar datos</text>
  <text x="900" y="168" text-anchor="middle" font-size="10" fill="#3b0764">nombre · semestre · carrera</text>

  <rect x="822" y="193" width="156" height="48" rx="6" fill="#ddd6fe" stroke="#7c3aed"/>
  <text x="900" y="212" text-anchor="middle" font-size="10" font-weight="bold" fill="#3b0764">Seleccionar corte</text>
  <text x="900" y="226" text-anchor="middle" font-size="10" fill="#3b0764">1er · 2do · 3er corte</text>

  <rect x="822" y="251" width="156" height="64" rx="6" fill="#ddd6fe" stroke="#7c3aed"/>
  <text x="900" y="272" text-anchor="middle" font-size="10" font-weight="bold" fill="#3b0764">Chat adaptativo</text>
  <text x="900" y="286" text-anchor="middle" font-size="10" fill="#3b0764">Recibe pistas graduales</text>
  <text x="900" y="300" text-anchor="middle" font-size="10" fill="#3b0764">Envía código Python</text>

  <rect x="822" y="325" width="156" height="48" rx="6" fill="#ddd6fe" stroke="#7c3aed"/>
  <text x="900" y="344" text-anchor="middle" font-size="10" font-weight="bold" fill="#3b0764">Ver resultados</text>
  <text x="900" y="358" text-anchor="middle" font-size="10" fill="#3b0764">tests · score · feedback</text>

  <rect x="822" y="383" width="156" height="48" rx="6" fill="#ddd6fe" stroke="#7c3aed"/>
  <text x="900" y="402" text-anchor="middle" font-size="10" font-weight="bold" fill="#3b0764">Ver mi progreso</text>
  <text x="900" y="416" text-anchor="middle" font-size="10" fill="#3b0764">score global · radar chart</text>

  <rect x="822" y="441" width="156" height="48" rx="6" fill="#ddd6fe" stroke="#7c3aed"/>
  <text x="900" y="460" text-anchor="middle" font-size="10" font-weight="bold" fill="#3b0764">Recibir ruta</text>
  <text x="900" y="474" text-anchor="middle" font-size="10" fill="#3b0764">al email · en la app</text>

  <rect x="822" y="499" width="156" height="48" rx="6" fill="#ddd6fe" stroke="#7c3aed"/>
  <text x="900" y="518" text-anchor="middle" font-size="10" font-weight="bold" fill="#3b0764">Practicar recursos</text>
  <text x="900" y="532" text-anchor="middle" font-size="10" fill="#3b0764">recomendados por IA</text>

  <!-- RETROALIMENTACIÓN AL MODELO -->
  <rect x="1010" y="90" width="170" height="680" rx="10" fill="#fce7f3" stroke="#db2777" stroke-width="2"/>
  <text x="1095" y="108" text-anchor="middle" font-size="11" font-weight="bold" fill="#9d174d">🔄 Ciclo de</text>
  <text x="1095" y="122" text-anchor="middle" font-size="11" font-weight="bold" fill="#9d174d">Mejora Continua</text>
  <line x1="1010" y1="130" x2="1180" y2="130" stroke="#db2777" stroke-width="1"/>

  <rect x="1022" y="140" width="146" height="54" rx="6" fill="#fbcfe8" stroke="#db2777"/>
  <text x="1095" y="160" text-anchor="middle" font-size="10" font-weight="bold" fill="#831843">Datos de desempeño</text>
  <text x="1095" y="174" text-anchor="middle" font-size="10" fill="#831843">se guardan en BD</text>
  <text x="1095" y="186" text-anchor="middle" font-size="9" fill="#831843">por estudiante + corte</text>

  <rect x="1022" y="206" width="146" height="54" rx="6" fill="#fbcfe8" stroke="#db2777"/>
  <text x="1095" y="226" text-anchor="middle" font-size="10" font-weight="bold" fill="#831843">Modelo ML</text>
  <text x="1095" y="240" text-anchor="middle" font-size="10" fill="#831843">se re-entrena cada</text>
  <text x="1095" y="252" text-anchor="middle" font-size="10" fill="#831843">50+ evaluaciones</text>

  <rect x="1022" y="272" width="146" height="54" rx="6" fill="#fbcfe8" stroke="#db2777"/>
  <text x="1095" y="292" text-anchor="middle" font-size="10" font-weight="bold" fill="#831843">Predicciones</text>
  <text x="1095" y="306" text-anchor="middle" font-size="10" fill="#831843">mejoran con más</text>
  <text x="1095" y="318" text-anchor="middle" font-size="10" fill="#831843">datos históricos</text>

  <rect x="1022" y="338" width="146" height="54" rx="6" fill="#fbcfe8" stroke="#db2777"/>
  <text x="1095" y="358" text-anchor="middle" font-size="10" font-weight="bold" fill="#831843">Docente ajusta</text>
  <text x="1095" y="372" text-anchor="middle" font-size="10" fill="#831843">preguntas según</text>
  <text x="1095" y="386" text-anchor="middle" font-size="10" fill="#831843">temas críticos</text>

  <rect x="1022" y="404" width="146" height="54" rx="6" fill="#fbcfe8" stroke="#db2777"/>
  <text x="1095" y="424" text-anchor="middle" font-size="10" font-weight="bold" fill="#831843">Ruta de aprendizaje</text>
  <text x="1095" y="438" text-anchor="middle" font-size="10" fill="#831843">personalizada por</text>
  <text x="1095" y="452" text-anchor="middle" font-size="10" fill="#831843">historial real</text>

  <!-- ARROWS between actors and system -->
  <!-- Admin → Sistema -->
  <line x1="180" y1="159" x2="430" y2="159" stroke="#0284c7" stroke-width="1.5" marker-end="url(#a1)"/>
  <line x1="180" y1="217" x2="430" y2="217" stroke="#0284c7" stroke-width="1.5" marker-end="url(#a1)"/>
  <line x1="180" y1="524" x2="430" y2="524" stroke="#0284c7" stroke-width="1.5" marker-end="url(#a1)"/>

  <!-- Docente → Sistema -->
  <line x1="390" y1="159" x2="430" y2="159" stroke="#16a34a" stroke-width="1.5" marker-end="url(#a2)"/>
  <line x1="390" y1="217" x2="445" y2="217" stroke="#16a34a" stroke-width="1.5" marker-end="url(#a2)"/>
  <line x1="390" y1="333" x2="445" y2="333" stroke="#16a34a" stroke-width="1.5" marker-end="url(#a2)"/>

  <!-- Sistema → Estudiante -->
  <line x1="770" y1="311" x2="810" y2="311" stroke="#d97706" stroke-width="1.5" marker-end="url(#a3)"/>
  <line x1="770" y1="389" x2="810" y2="389" stroke="#d97706" stroke-width="1.5" marker-end="url(#a3)"/>
  <line x1="770" y1="652" x2="810" y2="465" stroke="#d97706" stroke-width="1.5" marker-end="url(#a3)"/>

  <!-- Estudiante → Sistema (feedback) -->
  <line x1="822" y1="279" x2="770" y2="311" stroke="#7c3aed" stroke-width="1.5" stroke-dasharray="4,3" marker-end="url(#a4)"/>

  <!-- Sistema → Ciclo Mejora -->
  <line x1="770" y1="524" x2="1010" y2="167" stroke="#db2777" stroke-width="1.5" stroke-dasharray="5,3" marker-end="url(#a5)"/>
  <line x1="770" y1="580" x2="1010" y2="359" stroke="#db2777" stroke-width="1.5" stroke-dasharray="5,3" marker-end="url(#a5)"/>

  <!-- CORTES label -->
  <rect x="30" y="760" width="1150" height="78" rx="8" fill="#f1f5f9" stroke="#cbd5e1"/>
  <text x="50" y="780" font-size="11" font-weight="bold" fill="#475569">Datos registrados por evaluación:</text>
  <text x="50" y="796" font-size="10" fill="#334155">▸ nombre_completo   ▸ semestre   ▸ programa_académico   ▸ curso   ▸ corte (1er | 2do | 3er)   ▸ score_global</text>
  <text x="50" y="812" font-size="10" fill="#334155">▸ scores por tema (variables, listas, tuplas, diccionarios, sets, dataframes, funciones)</text>
  <text x="50" y="828" font-size="10" fill="#334155">▸ ruta_aprendizaje (JSONB)   ▸ enviada_email (auto)   ▸ en_riesgo (predicción ML)   ▸ temas_debiles   ▸ curso_asignado</text>

  <!-- Markers -->
  <defs>
    <marker id="a1" markerWidth="8" markerHeight="8" refX="6" refY="3" orient="auto"><path d="M0,0 L0,6 L8,3 z" fill="#0284c7"/></marker>
    <marker id="a2" markerWidth="8" markerHeight="8" refX="6" refY="3" orient="auto"><path d="M0,0 L0,6 L8,3 z" fill="#16a34a"/></marker>
    <marker id="a3" markerWidth="8" markerHeight="8" refX="6" refY="3" orient="auto"><path d="M0,0 L0,6 L8,3 z" fill="#d97706"/></marker>
    <marker id="a4" markerWidth="8" markerHeight="8" refX="6" refY="3" orient="auto"><path d="M0,0 L0,6 L8,3 z" fill="#7c3aed"/></marker>
    <marker id="a5" markerWidth="8" markerHeight="8" refX="6" refY="3" orient="auto"><path d="M0,0 L0,6 L8,3 z" fill="#db2777"/></marker>
  </defs>

</svg>